<?xml version="1.0" encoding="UTF-8" standalone="no"?>
<!DOCTYPE svg PUBLIC "-//W3C//DTD SVG 1.1//EN"
 "http://www.w3.org/Graphics/SVG/1.1/DTD/svg11.dtd">
<!-- Generated by graphviz version 2.38.0 (20140413.2041)
 -->
<!-- Title: G Pages: 1 -->
<svg width="1420pt" height="455pt"
 viewBox="0.00 0.00 1419.99 454.74" xmlns="http://www.w3.org/2000/svg" xmlns:xlink="http://www.w3.org/1999/xlink">
<g id="graph0" class="graph" transform="scale(1 1) rotate(0) translate(4 450.74)">
<title>G</title>
<polygon fill="white" stroke="none" points="-4,4 -4,-450.74 1415.99,-450.74 1415.99,4 -4,4"/>
<!-- unh -->
<g id="node1" class="node"><title>unh</title>
<g id="a_node1"><a xlink:href="https://manchester.unh.edu/" xlink:title="UNH Manchester">
<ellipse fill="lightyellow" stroke="lightgreen" cx="546.993" cy="-428.74" rx="74.187" ry="18"/>
<text text-anchor="middle" x="546.993" y="-425.04" font-family="Times New Roman,serif" font-size="14.00">UNH Manchester</text>
</a>
</g>
</g>
<!-- apply -->
<g id="node2" class="node"><title>apply</title>
<g id="a_node2"><a xlink:href="https://admissions.unh.edu/apply" xlink:title="Apply Without
 Transfer">
<ellipse fill="lightyellow" stroke="lightgreen" cx="416.993" cy="-346.87" rx="70.922" ry="26.7407"/>
<text text-anchor="middle" x="416.993" y="-350.67" font-family="Times New Roman,serif" font-size="14.00">Apply Without</text>
<text text-anchor="middle" x="416.993" y="-335.67" font-family="Times New Roman,serif" font-size="14.00"> Transfer</text>
</a>
</g>
</g>
<!-- unh&#45;&gt;apply -->
<g id="edge1" class="edge"><title>unh&#45;&gt;apply</title>
<path fill="none" stroke="black" d="M520.998,-411.769C504.087,-401.379 481.587,-387.556 461.841,-375.424"/>
<polygon fill="black" stroke="black" points="463.635,-372.418 453.282,-370.166 459.97,-378.383 463.635,-372.418"/>
</g>
<!-- transfer -->
<g id="node3" class="node"><title>transfer</title>
<ellipse fill="none" stroke="black" cx="546.993" cy="-346.87" rx="41.6928" ry="18"/>
<text text-anchor="middle" x="546.993" y="-343.17" font-family="Times New Roman,serif" font-size="14.00">Transfer</text>
</g>
<!-- unh&#45;&gt;transfer -->
<g id="edge2" class="edge"><title>unh&#45;&gt;transfer</title>
<path fill="none" stroke="black" d="M541.315,-410.41C540.212,-400.082 539.96,-386.748 540.559,-375.046"/>
<polygon fill="black" stroke="black" points="544.063,-375.134 541.348,-364.892 537.084,-374.591 544.063,-375.134"/>
</g>
<!-- transfer&#45;&gt;unh -->
<g id="edge3" class="edge"><title>transfer&#45;&gt;unh</title>
<path fill="none" stroke="black" d="M552.638,-364.892C553.758,-375.159 554.026,-388.479 553.445,-400.213"/>
<polygon fill="black" stroke="black" points="549.938,-400.173 552.672,-410.41 556.918,-400.703 549.938,-400.173"/>
</g>
<!-- from_nhit -->
<g id="node4" class="node"><title>from_nhit</title>
<g id="a_node4"><a xlink:href="/transfer_college?college=nhit" xlink:title="Concord Community College">
<ellipse fill="lightyellow" stroke="lightgreen" cx="282.993" cy="-251" rx="118.079" ry="18"/>
<text text-anchor="middle" x="282.993" y="-247.3" font-family="Times New Roman,serif" font-size="14.00">Concord Community College</text>
</a>
</g>
</g>
<!-- transfer&#45;&gt;from_nhit -->
<g id="edge4" class="edge"><title>transfer&#45;&gt;from_nhit</title>
<path fill="none" stroke="black" d="M522.464,-332.125C514.477,-327.936 505.481,-323.515 496.993,-320 448.374,-299.869 391.529,-282.061 348.65,-269.724"/>
<polygon fill="black" stroke="black" points="349.471,-266.319 338.895,-266.942 347.551,-273.05 349.471,-266.319"/>
<text text-anchor="middle" x="459.993" y="-290.8" font-family="Times New Roman,serif" font-size="14.00">from</text>
</g>
<!-- from_nashua -->
<g id="node5" class="node"><title>from_nashua</title>
<g id="a_node5"><a xlink:href="/transfer_college?college=nashua" xlink:title="Nashua Community College">
<ellipse fill="lightyellow" stroke="lightgreen" cx="546.993" cy="-251" rx="112.38" ry="18"/>
<text text-anchor="middle" x="546.993" y="-247.3" font-family="Times New Roman,serif" font-size="14.00">Nashua Community College</text>
</a>
</g>
</g>
<!-- transfer&#45;&gt;from_nashua -->
<g id="edge5" class="edge"><title>transfer&#45;&gt;from_nashua</title>
<path fill="none" stroke="black" d="M546.993,-328.653C546.993,-314.891 546.993,-295.34 546.993,-279.427"/>
<polygon fill="black" stroke="black" points="550.493,-279.108 546.993,-269.108 543.493,-279.108 550.493,-279.108"/>
<text text-anchor="middle" x="560.993" y="-290.8" font-family="Times New Roman,serif" font-size="14.00">from</text>
</g>
<!-- from_mcc -->
<g id="node6" class="node"><title>from_mcc</title>
<g id="a_node6"><a xlink:href="/transfer_college?college=mcc" xlink:title="Manchester Community College">
<ellipse fill="lightyellow" stroke="lightgreen" cx="819.993" cy="-251" rx="127.277" ry="18"/>
<text text-anchor="middle" x="819.993" y="-247.3" font-family="Times New Roman,serif" font-size="14.00">Manchester Community College</text>
</a>
</g>
</g>
<!-- transfer&#45;&gt;from_mcc -->
<g id="edge6" class="edge"><title>transfer&#45;&gt;from_mcc</title>
<path fill="none" stroke="black" d="M578.576,-335.01C623.859,-319.44 707.933,-290.532 763.93,-271.277"/>
<polygon fill="black" stroke="black" points="765.38,-274.48 773.698,-267.918 763.103,-267.86 765.38,-274.48"/>
<text text-anchor="middle" x="728.993" y="-290.8" font-family="Times New Roman,serif" font-size="14.00">from</text>
</g>
<!-- nhit_compare_tuition_cost -->
<g id="node7" class="node"><title>nhit_compare_tuition_cost</title>
<g id="a_node7"><a xlink:href="/index.html" xlink:title="Compare Tuition Cost">
<ellipse fill="lightyellow" stroke="lightgreen" cx="103.993" cy="-178" rx="92.8835" ry="18"/>
<text text-anchor="middle" x="103.993" y="-174.3" font-family="Times New Roman,serif" font-size="14.00">Compare Tuition Cost</text>
</a>
</g>
</g>
<!-- from_nhit&#45;&gt;nhit_compare_tuition_cost -->
<g id="edge7" class="edge"><title>from_nhit&#45;&gt;nhit_compare_tuition_cost</title>
<path fill="none" stroke="black" d="M242.822,-234.066C215.966,-223.414 180.492,-209.343 152.125,-198.092"/>
<polygon fill="black" stroke="black" points="153.387,-194.827 142.801,-194.393 150.806,-201.333 153.387,-194.827"/>
</g>
<!-- nhit_list_of_unh_programs -->
<g id="node8" class="node"><title>nhit_list_of_unh_programs</title>
<ellipse fill="none" stroke="black" cx="282.993" cy="-178" rx="67.6881" ry="18"/>
<text text-anchor="middle" x="282.993" y="-174.3" font-family="Times New Roman,serif" font-size="14.00">UNH Programs</text>
</g>
<!-- from_nhit&#45;&gt;nhit_list_of_unh_programs -->
<g id="edge8" class="edge"><title>from_nhit&#45;&gt;nhit_list_of_unh_programs</title>
<path fill="none" stroke="black" d="M282.993,-232.813C282.993,-224.789 282.993,-215.047 282.993,-206.069"/>
<polygon fill="black" stroke="black" points="286.493,-206.029 282.993,-196.029 279.493,-206.029 286.493,-206.029"/>
</g>
<!-- nashua_compare_tuition_cost -->
<g id="node13" class="node"><title>nashua_compare_tuition_cost</title>
<g id="a_node13"><a xlink:href="/index.html" xlink:title="Compare Tuition Cost">
<ellipse fill="lightyellow" stroke="lightgreen" cx="461.993" cy="-178" rx="92.8835" ry="18"/>
<text text-anchor="middle" x="461.993" y="-174.3" font-family="Times New Roman,serif" font-size="14.00">Compare Tuition Cost</text>
</a>
</g>
</g>
<!-- from_nashua&#45;&gt;nashua_compare_tuition_cost -->
<g id="edge13" class="edge"><title>from_nashua&#45;&gt;nashua_compare_tuition_cost</title>
<path fill="none" stroke="black" d="M526.849,-233.174C515.84,-223.978 502.033,-212.445 489.991,-202.387"/>
<polygon fill="black" stroke="black" points="491.911,-199.43 481.992,-195.705 487.423,-204.802 491.911,-199.43"/>
</g>
<!-- nashua_list_of_unh_programs -->
<g id="node14" class="node"><title>nashua_list_of_unh_programs</title>
<ellipse fill="none" stroke="black" cx="640.993" cy="-178" rx="67.6881" ry="18"/>
<text text-anchor="middle" x="640.993" y="-174.3" font-family="Times New Roman,serif" font-size="14.00">UNH Programs</text>
</g>
<!-- from_nashua&#45;&gt;nashua_list_of_unh_programs -->
<g id="edge14" class="edge"><title>from_nashua&#45;&gt;nashua_list_of_unh_programs</title>
<path fill="none" stroke="black" d="M569.27,-233.174C581.859,-223.665 597.755,-211.658 611.382,-201.366"/>
<polygon fill="black" stroke="black" points="613.653,-204.037 619.523,-195.217 609.434,-198.451 613.653,-204.037"/>
</g>
<!-- mcc_compare_tuition_cost -->
<g id="node19" class="node"><title>mcc_compare_tuition_cost</title>
<g id="a_node19"><a xlink:href="/index.html" xlink:title="Compare Tuition Cost">
<ellipse fill="lightyellow" stroke="lightgreen" cx="819.993" cy="-178" rx="92.8835" ry="18"/>
<text text-anchor="middle" x="819.993" y="-174.3" font-family="Times New Roman,serif" font-size="14.00">Compare Tuition Cost</text>
</a>
</g>
</g>
<!-- from_mcc&#45;&gt;mcc_compare_tuition_cost -->
<g id="edge19" class="edge"><title>from_mcc&#45;&gt;mcc_compare_tuition_cost</title>
<path fill="none" stroke="black" d="M819.993,-232.813C819.993,-224.789 819.993,-215.047 819.993,-206.069"/>
<polygon fill="black" stroke="black" points="823.493,-206.029 819.993,-196.029 816.493,-206.029 823.493,-206.029"/>
</g>
<!-- mcc_list_of_unh_programs -->
<g id="node20" class="node"><title>mcc_list_of_unh_programs</title>
<ellipse fill="none" stroke="black" cx="998.993" cy="-178" rx="67.6881" ry="18"/>
<text text-anchor="middle" x="998.993" y="-174.3" font-family="Times New Roman,serif" font-size="14.00">UNH Programs</text>
</g>
<!-- from_mcc&#45;&gt;mcc_list_of_unh_programs -->
<g id="edge20" class="edge"><title>from_mcc&#45;&gt;mcc_list_of_unh_programs</title>
<path fill="none" stroke="black" d="M860.611,-233.889C888.228,-222.935 924.801,-208.428 953.413,-197.079"/>
<polygon fill="black" stroke="black" points="954.782,-200.302 962.787,-193.361 952.201,-193.795 954.782,-200.302"/>
</g>
<!-- nhit_computer_science -->
<g id="node9" class="node"><title>nhit_computer_science</title>
<ellipse fill="none" stroke="black" cx="77.9931" cy="-105" rx="77.9862" ry="18"/>
<text text-anchor="middle" x="77.9931" y="-101.3" font-family="Times New Roman,serif" font-size="14.00">Computer Science</text>
</g>
<!-- nhit_list_of_unh_programs&#45;&gt;nhit_computer_science -->
<g id="edge9" class="edge"><title>nhit_list_of_unh_programs&#45;&gt;nhit_computer_science</title>
<path fill="none" stroke="black" d="M243.467,-163.31C210.924,-152.039 164.553,-135.979 129.175,-123.726"/>
<polygon fill="black" stroke="black" points="130.104,-120.344 119.509,-120.379 127.813,-126.959 130.104,-120.344"/>
</g>
<!-- nhit_information_technology -->
<g id="node10" class="node"><title>nhit_information_technology</title>
<ellipse fill="none" stroke="black" cx="283.993" cy="-105" rx="98.5829" ry="18"/>
<text text-anchor="middle" x="283.993" y="-101.3" font-family="Times New Roman,serif" font-size="14.00">Information Technology</text>
</g>
<!-- nhit_list_of_unh_programs&#45;&gt;nhit_information_technology -->
<g id="edge10" class="edge"><title>nhit_list_of_unh_programs&#45;&gt;nhit_information_technology</title>
<path fill="none" stroke="black" d="M283.235,-159.813C283.348,-151.789 283.485,-142.047 283.612,-133.069"/>
<polygon fill="black" stroke="black" points="287.112,-133.077 283.753,-123.029 280.113,-132.979 287.112,-133.077"/>
</g>
<!-- nhit_apply_to_cs -->
<g id="node11" class="node"><title>nhit_apply_to_cs</title>
<g id="a_node11"><a xlink:href="/index.html" xlink:title="Apply">
<ellipse fill="lightyellow" stroke="lightgreen" cx="66.9931" cy="-18" rx="33.2948" ry="18"/>
<text text-anchor="middle" x="66.9931" y="-14.3" font-family="Times New Roman,serif" font-size="14.00">Apply</text>
</a>
</g>
</g>
<!-- nhit_computer_science&#45;&gt;nhit_apply_to_cs -->
<g id="edge11" class="edge"><title>nhit_computer_science&#45;&gt;nhit_apply_to_cs</title>
<g id="a_edge11"><a xlink:href="/index.html" xlink:title="review_acceptable_transfer_classes">
<path fill="none" stroke="lightgreen" d="M75.7671,-86.799C74.2612,-75.1626 72.2405,-59.5479 70.5178,-46.2368"/>
<polygon fill="lightyellow" stroke="lightgreen" points="73.9703,-45.6435 69.2158,-36.1754 67.0282,-46.542 73.9703,-45.6435"/>
</a>
</g>
<g id="a_edge11&#45;label"><a xlink:href="/index.html" xlink:title="review_acceptable_transfer_classes">
<text text-anchor="middle" x="173.993" y="-57.8" font-family="Times New Roman,serif" font-size="14.00">review_acceptable_transfer_classes</text>
</a>
</g>
</g>
<!-- nhit_apply_to_it -->
<g id="node12" class="node"><title>nhit_apply_to_it</title>
<g id="a_node12"><a xlink:href="/index.html" xlink:title="Apply">
<ellipse fill="lightyellow" stroke="lightgreen" cx="289.993" cy="-18" rx="33.2948" ry="18"/>
<text text-anchor="middle" x="289.993" y="-14.3" font-family="Times New Roman,serif" font-size="14.00">Apply</text>
</a>
</g>
</g>
<!-- nhit_information_technology&#45;&gt;nhit_apply_to_it -->
<g id="edge12" class="edge"><title>nhit_information_technology&#45;&gt;nhit_apply_to_it</title>
<g id="a_edge12"><a xlink:href="/index.html" xlink:title="review_acceptable_transfer_classes">
<path fill="none" stroke="lightgreen" d="M285.207,-86.799C286.029,-75.1626 287.131,-59.5479 288.07,-46.2368"/>
<polygon fill="lightyellow" stroke="lightgreen" points="291.568,-46.3971 288.781,-36.1754 284.585,-45.9041 291.568,-46.3971"/>
</a>
</g>
<g id="a_edge12&#45;label"><a xlink:href="/index.html" xlink:title="review_acceptable_transfer_classes">
<text text-anchor="middle" x="387.993" y="-57.8" font-family="Times New Roman,serif" font-size="14.00">review_acceptable_transfer_classes</text>
</a>
</g>
</g>
<!-- nashua_computer_science -->
<g id="node15" class="node"><title>nashua_computer_science</title>
<ellipse fill="none" stroke="black" cx="542.993" cy="-105" rx="77.9862" ry="18"/>
<text text-anchor="middle" x="542.993" y="-101.3" font-family="Times New Roman,serif" font-size="14.00">Computer Science</text>
</g>
<!-- nashua_list_of_unh_programs&#45;&gt;nashua_computer_science -->
<g id="edge15" class="edge"><title>nashua_list_of_unh_programs&#45;&gt;nashua_computer_science</title>
<path fill="none" stroke="black" d="M618.755,-160.889C605.443,-151.244 588.328,-138.845 573.735,-128.272"/>
<polygon fill="black" stroke="black" points="575.634,-125.326 565.482,-122.293 571.527,-130.994 575.634,-125.326"/>
</g>
<!-- nashua_information_technology -->
<g id="node16" class="node"><title>nashua_information_technology</title>
<ellipse fill="none" stroke="black" cx="744.993" cy="-105" rx="98.5829" ry="18"/>
<text text-anchor="middle" x="744.993" y="-101.3" font-family="Times New Roman,serif" font-size="14.00">Information Technology</text>
</g>
<!-- nashua_list_of_unh_programs&#45;&gt;nashua_information_technology -->
<g id="edge16" class="edge"><title>nashua_list_of_unh_programs&#45;&gt;nashua_information_technology</title>
<path fill="none" stroke="black" d="M664.333,-161.066C678.481,-151.407 696.746,-138.938 712.317,-128.308"/>
<polygon fill="black" stroke="black" points="714.361,-131.15 720.647,-122.621 710.414,-125.369 714.361,-131.15"/>
</g>
<!-- nashua_apply_to_cs -->
<g id="node17" class="node"><title>nashua_apply_to_cs</title>
<g id="a_node17"><a xlink:href="/index.html" xlink:title="Apply">
<ellipse fill="lightyellow" stroke="lightgreen" cx="535.993" cy="-18" rx="33.2948" ry="18"/>
<text text-anchor="middle" x="535.993" y="-14.3" font-family="Times New Roman,serif" font-size="14.00">Apply</text>
</a>
</g>
</g>
<!-- nashua_computer_science&#45;&gt;nashua_apply_to_cs -->
<g id="edge17" class="edge"><title>nashua_computer_science&#45;&gt;nashua_apply_to_cs</title>
<g id="a_edge17"><a xlink:href="/index.html" xlink:title="review_acceptable_transfer_classes">
<path fill="none" stroke="lightgreen" d="M539.549,-86.9787C538.538,-81.2866 537.554,-74.8918 536.993,-69 536.297,-61.683 535.952,-53.7375 535.801,-46.3794"/>
<polygon fill="lightyellow" stroke="lightgreen" points="539.299,-46.1266 535.703,-36.1608 532.3,-46.1941 539.299,-46.1266"/>
</a>
</g>
<g id="a_edge17&#45;label"><a xlink:href="/index.html" xlink:title="review_acceptable_transfer_classes">
<text text-anchor="middle" x="636.993" y="-57.8" font-family="Times New Roman,serif" font-size="14.00">review_acceptable_transfer_classes</text>
</a>
</g>
</g>
<!-- nashua_apply_to_it -->
<g id="node18" class="node"><title>nashua_apply_to_it</title>
<g id="a_node18"><a xlink:href="/index.html" xlink:title="Apply">
<ellipse fill="lightyellow" stroke="lightgreen" cx="758.993" cy="-18" rx="33.2948" ry="18"/>
<text text-anchor="middle" x="758.993" y="-14.3" font-family="Times New Roman,serif" font-size="14.00">Apply</text>
</a>
</g>
</g>
<!-- nashua_information_technology&#45;&gt;nashua_apply_to_it -->
<g id="edge18" class="edge"><title>nashua_information_technology&#45;&gt;nashua_apply_to_it</title>
<g id="a_edge18"><a xlink:href="/index.html" xlink:title="review_acceptable_transfer_classes">
<path fill="none" stroke="lightgreen" d="M747.826,-86.799C749.743,-75.1626 752.315,-59.5479 754.507,-46.2368"/>
<polygon fill="lightyellow" stroke="lightgreen" points="757.992,-46.6113 756.164,-36.1754 751.085,-45.4737 757.992,-46.6113"/>
</a>
</g>
<g id="a_edge18&#45;label"><a xlink:href="/index.html" xlink:title="review_acceptable_transfer_classes">
<text text-anchor="middle" x="851.993" y="-57.8" font-family="Times New Roman,serif" font-size="14.00">review_acceptable_transfer_classes</text>
</a>
</g>
</g>
<!-- mcc_computer_science -->
<g id="node21" class="node"><title>mcc_computer_science</title>
<ellipse fill="none" stroke="black" cx="996.993" cy="-105" rx="77.9862" ry="18"/>
<text text-anchor="middle" x="996.993" y="-101.3" font-family="Times New Roman,serif" font-size="14.00">Computer Science</text>
</g>
<!-- mcc_list_of_unh_programs&#45;&gt;mcc_computer_science -->
<g id="edge21" class="edge"><title>mcc_list_of_unh_programs&#45;&gt;mcc_computer_science</title>
<path fill="none" stroke="black" d="M998.509,-159.813C998.283,-151.789 998.009,-142.047 997.756,-133.069"/>
<polygon fill="black" stroke="black" points="1001.25,-132.926 997.473,-123.029 994.256,-133.123 1001.25,-132.926"/>
</g>
<!-- mcc_information_technology -->
<g id="node22" class="node"><title>mcc_information_technology</title>
<ellipse fill="none" stroke="black" cx="1205.99" cy="-105" rx="98.5829" ry="18"/>
<text text-anchor="middle" x="1205.99" y="-101.3" font-family="Times New Roman,serif" font-size="14.00">Information Technology</text>
</g>
<!-- mcc_list_of_unh_programs&#45;&gt;mcc_information_technology -->
<g id="edge22" class="edge"><title>mcc_list_of_unh_programs&#45;&gt;mcc_information_technology</title>
<path fill="none" stroke="black" d="M1038.9,-163.31C1071.12,-152.26 1116.76,-136.607 1152.2,-124.452"/>
<polygon fill="black" stroke="black" points="1153.58,-127.678 1161.9,-121.122 1151.31,-121.056 1153.58,-127.678"/>
</g>
<!-- mcc_apply_to_cs -->
<g id="node23" class="node"><title>mcc_apply_to_cs</title>
<g id="a_node23"><a xlink:href="/index.html" xlink:title="Apply">
<ellipse fill="lightyellow" stroke="lightgreen" cx="993.993" cy="-18" rx="33.2948" ry="18"/>
<text text-anchor="middle" x="993.993" y="-14.3" font-family="Times New Roman,serif" font-size="14.00">Apply</text>
</a>
</g>
</g>
<!-- mcc_computer_science&#45;&gt;mcc_apply_to_cs -->
<g id="edge23" class="edge"><title>mcc_computer_science&#45;&gt;mcc_apply_to_cs</title>
<g id="a_edge23"><a xlink:href="/index.html" xlink:title="review_acceptable_transfer_classes">
<path fill="none" stroke="lightgreen" d="M995.89,-86.9162C995.556,-81.22 995.218,-74.8385 994.993,-69 994.71,-61.6554 994.505,-53.7005 994.357,-46.3423"/>
<polygon fill="lightyellow" stroke="lightgreen" points="997.853,-46.0665 994.179,-36.129 990.854,-46.1885 997.853,-46.0665"/>
</a>
</g>
<g id="a_edge23&#45;label"><a xlink:href="/index.html" xlink:title="review_acceptable_transfer_classes">
<text text-anchor="middle" x="1094.99" y="-57.8" font-family="Times New Roman,serif" font-size="14.00">review_acceptable_transfer_classes</text>
</a>
</g>
</g>
<!-- mcc_apply_to_it -->
<g id="node24" class="node"><title>mcc_apply_to_it</title>
<g id="a_node24"><a xlink:href="/index.html" xlink:title="Apply">
<ellipse fill="lightyellow" stroke="lightgreen" cx="1216.99" cy="-18" rx="33.2948" ry="18"/>
<text text-anchor="middle" x="1216.99" y="-14.3" font-family="Times New Roman,serif" font-size="14.00">Apply</text>
</a>
</g>
</g>
<!-- mcc_information_technology&#45;&gt;mcc_apply_to_it -->
<g id="edge24" class="edge"><title>mcc_information_technology&#45;&gt;mcc_apply_to_it</title>
<g id="a_edge24"><a xlink:href="/index.html" xlink:title="review_acceptable_transfer_classes">
<path fill="none" stroke="lightgreen" d="M1208.22,-86.799C1209.72,-75.1626 1211.75,-59.5479 1213.47,-46.2368"/>
<polygon fill="lightyellow" stroke="lightgreen" points="1216.96,-46.542 1214.77,-36.1754 1210.02,-45.6435 1216.96,-46.542"/>
</a>
</g>
<g id="a_edge24&#45;label"><a xlink:href="/index.html" xlink:title="review_acceptable_transfer_classes">
<text text-anchor="middle" x="1311.99" y="-57.8" font-family="Times New Roman,serif" font-size="14.00">review_acceptable_transfer_classes</text>
</a>
</g>
</g>
</g>
</svg>
